<svg xmlns="http://www.w3.org/2000/svg" width="1200" height="700" viewBox="0 0 1200 700">
  <defs>
    <linearGradient id="bg" x1="0" y1="0" x2="1" y2="1">
      <stop offset="0" stop-color="#60a5fa" stop-opacity="0.35"></stop>
      <stop offset="1" stop-color="#a78bfa" stop-opacity="0.28"></stop>
    </linearGradient>
  </defs>

  <rect width="1200" height="700" rx="28" fill="rgba(255,255,255,0.06)" stroke="rgba(255,255,255,0.14)"></rect>
  <rect x="24" y="24" width="1152" height="652" rx="22" fill="url(#bg)"></rect>

  <!-- fake topbar -->
  <rect x="60" y="60" width="1080" height="56" rx="16" fill="rgba(0,0,0,0.22)"></rect>
  <circle cx="96" cy="88" r="10" fill="rgba(255,255,255,0.55)"></circle>
  <circle cx="128" cy="88" r="10" fill="rgba(255,255,255,0.40)"></circle>
  <circle cx="160" cy="88" r="10" fill="rgba(255,255,255,0.30)"></circle>
  <text x="220" y="96" font-family="system-ui,Segoe UI,Roboto,Arial" font-weight="800" font-size="18" fill="rgba(255,255,255,0.92)">JSocialFlux — realtime social app (placeholder)</text>

  <!-- fake layout -->
  <rect x="60" y="140" width="280" height="500" rx="18" fill="rgba(0,0,0,0.22)"></rect>
  <rect x="370" y="140" width="770" height="240" rx="18" fill="rgba(0,0,0,0.22)"></rect>
  <rect x="370" y="400" width="770" height="240" rx="18" fill="rgba(0,0,0,0.22)"></rect>

  <!-- small blocks -->
  <rect x="88" y="170" width="224" height="44" rx="12" fill="rgba(255,255,255,0.14)"></rect>
  <rect x="88" y="228" width="224" height="44" rx="12" fill="rgba(255,255,255,0.12)"></rect>
  <rect x="88" y="286" width="224" height="44" rx="12" fill="rgba(255,255,255,0.10)"></rect>

  <rect x="400" y="170" width="520" height="22" rx="11" fill="rgba(255,255,255,0.20)"></rect>
  <rect x="400" y="210" width="680" height="16" rx="8" fill="rgba(255,255,255,0.16)"></rect>
  <rect x="400" y="240" width="640" height="16" rx="8" fill="rgba(255,255,255,0.14)"></rect>

  <rect x="400" y="430" width="520" height="22" rx="11" fill="rgba(255,255,255,0.20)"></rect>
  <rect x="400" y="470" width="680" height="16" rx="8" fill="rgba(255,255,255,0.16)"></rect>
  <rect x="400" y="500" width="640" height="16" rx="8" fill="rgba(255,255,255,0.14)"></rect>
</svg>
