<svg xmlns="http://www.w3.org/2000/svg" width="1200" height="700" viewBox="0 0 1200 700">
  <defs>
    <linearGradient id="bg2" x1="0" y1="0" x2="1" y2="1">
      <stop offset="0" stop-color="#22c55e" stop-opacity="0.22"></stop>
      <stop offset="1" stop-color="#60a5fa" stop-opacity="0.22"></stop>
    </linearGradient>
  </defs>

  <rect width="1200" height="700" rx="28" fill="rgba(255,255,255,0.06)" stroke="rgba(255,255,255,0.14)"></rect>
  <rect x="24" y="24" width="1152" height="652" rx="22" fill="url(#bg2)"></rect>

  <!-- header -->
  <rect x="60" y="60" width="1080" height="70" rx="18" fill="rgba(0,0,0,0.22)"></rect>
  <text x="90" y="104" font-family="system-ui,Segoe UI,Roboto,Arial" font-weight="800" font-size="20" fill="rgba(255,255,255,0.92)">Landmarks of Ukraine — SSR site (placeholder)</text>

  <!-- cards grid -->
  <rect x="60" y="160" width="340" height="220" rx="18" fill="rgba(0,0,0,0.22)"></rect>
  <rect x="430" y="160" width="340" height="220" rx="18" fill="rgba(0,0,0,0.22)"></rect>
  <rect x="800" y="160" width="340" height="220" rx="18" fill="rgba(0,0,0,0.22)"></rect>

  <rect x="60" y="410" width="520" height="230" rx="18" fill="rgba(0,0,0,0.22)"></rect>
  <rect x="610" y="410" width="530" height="230" rx="18" fill="rgba(0,0,0,0.22)"></rect>

  <!-- fake image blocks inside cards -->
  <rect x="85" y="185" width="290" height="130" rx="14" fill="rgba(255,255,255,0.14)"></rect>
  <rect x="455" y="185" width="290" height="130" rx="14" fill="rgba(255,255,255,0.14)"></rect>
  <rect x="825" y="185" width="290" height="130" rx="14" fill="rgba(255,255,255,0.14)"></rect>

  <rect x="85" y="335" width="240" height="18" rx="9" fill="rgba(255,255,255,0.18)"></rect>
  <rect x="455" y="335" width="240" height="18" rx="9" fill="rgba(255,255,255,0.18)"></rect>
  <rect x="825" y="335" width="240" height="18" rx="9" fill="rgba(255,255,255,0.18)"></rect>

  <rect x="85" y="435" width="470" height="140" rx="14" fill="rgba(255,255,255,0.14)"></rect>
  <rect x="635" y="435" width="480" height="140" rx="14" fill="rgba(255,255,255,0.14)"></rect>

  <rect x="85" y="590" width="280" height="18" rx="9" fill="rgba(255,255,255,0.18)"></rect>
  <rect x="635" y="590" width="280" height="18" rx="9" fill="rgba(255,255,255,0.18)"></rect>
</svg>
